<svg xmlns="http://www.w3.org/2000/svg" width="512" height="512" viewBox="0 0 512 512"><title>Synthetic M-01A evaluation input, not a generated result</title><rect width="512" height="512" fill="#e8f0ec"/><path d="M128 512V360Q128 310 180 310H332Q384 310 384 360V512" fill="#cf4040"/><ellipse cx="256" cy="212" rx="90" ry="105" fill="#f4c69e"/><path d="M166 195V155Q170 96 240 94Q335 86 346 181L308 158L268 139L226 169L191 155Z" fill="#683d24"/><g fill="none" stroke="#007f82" stroke-width="8"><circle cx="218" cy="211" r="26"/><circle cx="294" cy="211" r="26"/><path d="M244 211H268"/></g><g fill="#202c35"><circle cx="219" cy="211" r="5"/><circle cx="293" cy="211" r="5"/></g><path d="M230 267Q256 288 282 267" fill="none" stroke="#7e3f38" stroke-width="5"/><path d="M321 354L346 396H296Z" fill="#ffce42"/></svg>
